# xmcd
#
# Track frame offsets:
#	150
#	13330
#	30605
#
# Disc length: 615 seconds
#
# Revision: 0
# Processed by: cddbd v1.5.2PL0 Copyright (c) Steve Scherf et al.
# Submitted via: audiograbber 1.83.01
#
DISCID=1d026503
DTITLE=Chris Isaak - Baby Did A Bad Bad Thing (Maxi Cd)
DYEAR=1995
DGENRE=Blues
TTITLE0=Baby Did A Bad Bad Thing (Album Version)
TTITLE1=Baby Did A Bad Bad Thing (Remix)
TTITLE2=Baby Did A Bad Bad Thing (Acoustic Version)
EXTD=
EXTT0=
EXTT1=
EXTT2=
PLAYORDER=
